<svg width="129" height="71" viewBox="0 0 129 71" fill="none" xmlns="http://www.w3.org/2000/svg">
<path d="M102.186 32.1449C104.979 32.5238 105.989 34.1518 106.012 36.6073C106.108 46.8665 106.363 46.5544 96.968 46.4057C94.7773 46.371 92.5851 46.4276 90.3945 46.3864C87.4796 46.3316 86.3374 45.0753 86.3617 42.0432C86.3851 39.1335 87.4658 37.9124 90.257 37.8523C93.3996 37.7846 96.5447 37.8426 99.6883 37.8085C100.582 37.7987 101.618 38.0696 102.214 36.9751C101.745 35.3316 100.409 35.7471 99.374 35.6961C96.236 35.5414 93.0935 35.4827 89.9528 35.3835C88.7775 35.3464 87.5024 35.3533 87.5976 33.6385C87.6805 32.1449 88.8683 32.1416 89.9261 32.1361C93.9273 32.1152 97.9286 32.127 102.186 32.1449ZM93.2493 41.135C92.0854 41.3558 90.5421 40.5264 89.8682 42.3144C92.397 43.6637 100.599 43.4543 102.692 41.5916C99.4752 40.7677 96.5851 41.3017 93.2493 41.135Z" fill="#3168D8"/>
<path d="M33.6012 35.4145C30.6798 35.3987 28.0181 35.401 25.3568 35.3712C24.3088 35.3595 23.1007 35.4282 23.0824 33.8792C23.0659 32.4862 24.042 32.1273 25.2077 32.1275C29.3899 32.1283 33.5743 32.0583 37.7535 32.1751C40.0823 32.2402 41.4345 33.582 41.4512 36.0613C41.4662 38.2861 41.5137 40.5139 41.4246 42.7353C41.3279 45.1441 40.1265 46.4435 37.6228 46.4091C33.7262 46.3555 29.828 46.4278 25.9311 46.3833C23.1332 46.3513 21.9161 45.0753 21.9054 42.3284C21.8929 39.1398 22.9081 37.9144 25.7984 37.8514C28.9339 37.7831 32.0724 37.8589 35.2084 37.8017C36.176 37.784 37.3517 38.2182 38.0665 36.7728C37.0879 35.0456 35.29 35.7502 33.6012 35.4145ZM27.6018 43.137C31.0837 42.9079 34.6858 43.6795 38.0713 42.6484C38.0505 42.1684 38.0296 41.6885 38.0088 41.2085C34.1859 41.2085 30.363 41.1965 26.5403 41.2231C26.0375 41.2266 25.6075 41.563 25.6434 42.1396C25.7019 43.08 26.4602 43.0494 27.6018 43.137Z" fill="#3168D8"/>
<path d="M113.638 41.1426C112.567 41.197 111.643 41.0652 111.375 42.1885C112.028 43.5677 113.217 43.0971 114.171 43.1141C117.691 43.1771 121.212 43.1327 124.733 43.1609C125.882 43.1701 127.176 43.1248 127.149 44.8485C127.12 46.635 125.74 46.3773 124.649 46.3846C120.272 46.4137 115.894 46.3719 111.517 46.4039C108.717 46.4243 107.963 44.8003 107.997 42.2794C108.043 38.8851 108.651 37.9148 111.475 37.8229C114.706 37.7178 117.944 37.8414 121.178 37.799C122.131 37.7865 123.347 38.2038 123.802 36.7196C123.155 35.284 121.85 35.7611 120.815 35.7133C117.301 35.5508 113.781 35.5043 110.265 35.3926C109.211 35.3591 108.079 35.3908 108.08 33.8026C108.08 32.2791 109.11 32.1331 110.219 32.1305C114.596 32.1202 118.976 32.0421 123.349 32.1604C126.269 32.2393 127.259 33.5233 127.25 36.6606C127.241 39.805 126.227 41.0203 123.305 41.1019C120.167 41.1896 117.025 41.133 113.638 41.1426Z" fill="#3168D8"/>
<path d="M45.2822 40.671C42.4841 38.5784 43.5428 35.818 43.6041 33.3063C43.6222 32.5643 44.3403 32.217 45.0851 32.2547C46.1422 32.3083 46.7138 32.9988 46.5751 33.9764C46.0497 37.6786 48.1122 38.1563 50.9797 37.8632C52.2031 37.7382 53.4529 37.7789 54.6842 37.8546C57.4992 38.0277 60.1888 38.1831 59.5499 33.8955C59.4093 32.9517 60.082 32.2416 61.1343 32.2608C62.1986 32.2802 62.6413 32.9741 62.6442 33.9755C62.6533 37.1673 62.6847 40.3602 62.6165 43.5507C62.58 45.2572 61.5702 46.2989 59.9165 46.3254C55.0701 46.4032 50.2219 46.3719 45.3743 46.369C44.3133 46.3684 43.4657 46.0426 43.5416 44.7241C43.6151 43.4451 44.5011 43.1783 45.5342 43.1726C49.2413 43.1521 52.949 43.1782 56.6552 43.1137C57.5925 43.0974 58.8214 43.5675 59.4132 41.663C54.7837 40.3175 50.0267 41.8375 45.2822 40.671Z" fill="#3168D8"/>
<path d="M7.90318 37.827C10.8133 37.8277 13.4764 37.8009 16.1385 37.8422C17.1462 37.8579 18.384 37.6903 18.4806 39.2655C18.5825 40.9269 17.4351 41.1124 16.2101 41.117C12.8817 41.1293 9.55153 41.1919 6.22569 41.0994C4.39839 41.0486 3.6082 41.7071 3.6988 43.6158C3.75559 44.8123 3.95578 46.382 2.0208 46.2841C0.092795 46.1866 0.567673 44.5718 0.533803 43.4214C0.462633 41.0041 0.569541 38.5813 0.496547 36.164C0.420499 33.6453 1.62779 32.2467 4.00119 32.1828C8.56249 32.0601 13.1289 32.1268 17.6931 32.1283C18.8822 32.1287 19.7372 32.5318 19.6915 33.968C19.6434 35.4782 18.568 35.6344 17.4981 35.6232C13.9826 35.5866 10.4681 35.4419 6.95275 35.4206C5.78814 35.4135 4.4135 35.1664 3.78561 36.8563C4.8151 38.296 6.36739 37.576 7.90318 37.827Z" fill="#3168D8"/>
<path d="M84.3623 37.0411C84.3589 39.6352 84.3646 41.9565 84.3481 44.2776C84.3408 45.3011 84.1961 46.2536 82.8748 46.3046C81.3997 46.3616 81.1847 45.362 81.1764 44.1996C81.1627 42.2653 81.0879 40.3278 81.1692 38.3974C81.2444 36.6099 80.6447 35.6422 78.7642 35.6771C76.0091 35.7283 73.2528 35.7305 70.497 35.7213C68.9254 35.716 68.2888 36.4971 68.3257 38.0585C68.3713 39.9916 68.3496 41.9274 68.3161 43.8613C68.2959 45.0263 68.3659 46.331 66.652 46.2951C65.1195 46.263 65.1626 45.0797 65.1541 44.0105C65.1325 41.3025 65.1806 38.5936 65.1385 35.8861C65.1007 33.4594 66.3957 32.245 68.5994 32.1838C72.6825 32.0703 76.7744 32.041 80.8556 32.1841C83.6189 32.2809 84.5593 34.155 84.3623 37.0411Z" fill="#3168D8"/>
<path d="M49.8088 65.4763C49.1865 64.1525 48.6518 63.025 48.1171 61.8975C47.9195 61.902 47.7219 61.9065 47.5243 61.9111C47.5243 63.8451 47.5668 65.7805 47.5048 67.7125C47.4774 68.5683 47.3611 69.6122 46.1458 69.4823C45.1401 69.3748 45.1624 68.4227 45.1529 67.6664C45.1163 64.7667 45.0899 61.8658 45.1319 58.9665C45.1476 57.8819 44.7626 56.481 46.3788 56.1417C47.9981 55.8016 48.4846 57.0972 49.0255 58.2299C50.085 60.4486 51.1236 62.6778 52.5417 65.6904C52.5417 62.7267 52.5025 60.6321 52.5602 58.5403C52.5847 57.654 52.2663 56.3044 53.6734 56.3223C54.8488 56.3372 54.6456 57.5605 54.6529 58.3788C54.6797 61.3754 54.6715 64.3728 54.6291 67.3691C54.616 68.2933 54.784 69.3971 53.4097 69.5981C52.3063 69.7595 51.6041 69.2738 51.1547 68.2729C50.7602 67.3944 50.3177 66.5384 49.8088 65.4763Z" fill="white"/>
<path d="M85.6052 56.0388C90.2575 58.248 91.612 64.7115 88.3027 68.3117C86.7793 69.9689 84.8417 70.5967 82.6033 69.7309C79.5846 68.5632 78.1126 64.9154 78.978 60.643C79.6708 57.2227 81.4577 55.923 85.6052 56.0388ZM87.4517 62.3212C87.3787 60.096 86.7868 58.0251 84.1849 58.1589C81.7203 58.2855 81.4777 60.4862 81.3713 62.4826C81.2061 65.584 82.5682 68.191 84.3851 67.8981C87.1495 67.4526 87.4997 65.174 87.4517 62.3212Z" fill="white"/>
<path d="M67.7295 66.9984C66.3379 69.4542 64.3687 70.4857 61.9074 69.9779C59.3056 69.4411 57.9845 67.519 57.5092 64.9098C56.9587 61.8886 57.263 59.0494 59.7009 57.0035C62.7983 54.4041 67.457 56.3308 68.2195 60.5278C68.5938 62.5881 68.7117 64.7465 67.7295 66.9984ZM60.0984 60.5618C59.6529 61.6736 59.7493 62.8424 59.8043 63.9917C59.9019 66.0344 60.8076 67.7121 62.888 67.8741C64.8298 68.0253 65.4578 66.3217 65.9432 64.6493C66.3133 63.3741 66.2051 62.2018 65.851 60.9676C65.4563 59.5918 64.8622 58.3972 63.3575 58.1341C61.7977 57.8614 60.888 58.8138 60.0984 60.5618Z" fill="white"/>
<path d="M35.1304 60.4935C35.9087 62.2651 37.2776 61.8705 38.4129 61.6467C39.8208 61.3691 39.4391 60.0268 39.5258 59.0176C39.5588 58.6332 39.5355 58.2429 39.5815 57.8608C39.6778 57.0588 39.8717 56.2418 40.8715 56.2864C41.8801 56.3315 41.9991 57.1812 42.0066 57.9766C42.0342 60.8738 42.0853 63.7726 42.0128 66.6678C41.987 67.6992 42.5495 69.3845 40.871 69.4325C39.2551 69.4787 39.518 67.8422 39.5675 66.7687C39.6609 64.7426 39.0772 63.6664 36.8374 63.8646C34.8107 64.044 35.1047 65.4583 34.9889 66.792C34.8974 67.8459 35.3423 69.4972 33.6445 69.433C32.1792 69.3776 32.5836 67.8394 32.5599 66.8693C32.4939 64.1667 32.4952 61.4603 32.5588 58.7576C32.5813 57.8045 32.1346 56.2827 33.7267 56.3193C35.1526 56.3521 34.884 57.8097 35.0089 58.8123C35.0684 59.2899 35.0631 59.7759 35.1304 60.4935Z" fill="white"/>
<path d="M98.4638 64.2397C97.6511 62.3792 98.9255 62.4871 99.9344 62.4179C101.086 62.3389 102.08 62.6068 102.074 64.0708C102.067 65.7915 102.371 67.5393 101.763 69.3021C98.8842 69.9752 95.9189 71.1257 93.6362 68.1707C91.491 65.3938 91.5198 62.2126 92.7973 59.0861C94.0353 56.056 98.1775 54.8397 100.478 56.7147C101.232 57.3297 102.028 58.1486 101.326 59.1586C100.61 60.1894 99.8657 59.4837 99.2155 58.8356C98.952 58.573 98.6107 58.34 98.2629 58.2255C96.9779 57.8027 96.0584 58.3807 95.3478 59.437C94.238 61.0868 94.302 65.1596 95.5289 66.6321C96.3617 67.6315 97.4298 68.4957 98.7428 67.7068C100.509 66.646 100.667 65.413 98.4638 64.2397Z" fill="white"/>
<path d="M121.564 65.9775C122.257 66.6192 122.721 67.2612 123.336 67.6651C124.293 68.2935 125.224 67.9258 125.831 67.0626C126.54 66.0535 125.711 65.4362 125.008 64.9644C124.059 64.3287 123.013 63.8468 122.041 63.2455C120.396 62.2283 119.791 60.7022 120.071 58.7921C120.299 57.2364 121.355 56.4203 122.717 56.1039C124.426 55.707 126.146 55.7277 127.504 57.1315C128.036 57.681 128.613 58.3629 127.98 59.1507C127.344 59.941 126.654 59.5814 126.016 59.0157C124.906 58.0318 123.55 57.3661 122.664 58.9865C121.793 60.5782 123.444 61.0542 124.451 61.6752C125.017 62.0249 125.632 62.2925 126.219 62.6101C128.04 63.5962 128.801 65.1208 128.359 67.1849C127.948 69.1049 126.43 69.7505 124.795 70.0393C122.852 70.3828 121.196 69.7106 120.177 67.931C119.438 66.6391 119.53 65.654 121.564 65.9775Z" fill="white"/>
<path d="M110.302 61.9412C110.301 61.1707 110.237 60.6754 110.312 60.2032C110.527 58.8581 109.573 56.8881 111.314 56.3351C113.342 55.6908 115.596 55.5151 117.663 56.5849C117.834 56.6734 117.841 57.0899 117.93 57.3707C117.066 58.6269 115.824 57.9985 114.768 58.0741C113.699 58.1507 112.899 58.3807 112.838 59.6756C112.777 60.9448 113.195 61.6968 114.572 61.7782C115.552 61.836 116.747 61.5107 117.278 62.8859C116.83 64.3525 115.579 63.7928 114.652 63.8726C113.341 63.9856 112.778 64.5884 112.837 65.9168C112.894 67.1772 113.611 67.4974 114.709 67.5959C115.83 67.6963 117.265 67.103 118.027 69.1476C115.723 70.0817 113.421 69.768 111.175 69.4196C110.286 69.2817 110.352 68.22 110.335 67.4615C110.296 65.7174 110.311 63.9719 110.302 61.9412Z" fill="white"/>
<path d="M16.191 61.7936C16.9637 61.9608 17.5211 62.0671 18.0225 62.2989C18.2092 62.3852 18.2649 62.765 18.3881 63.0275C17.7034 64.2901 16.5309 63.7974 15.5781 63.8873C14.3801 64.0004 13.9124 64.6195 13.9237 65.7793C13.9352 66.9588 14.4694 67.5002 15.6459 67.609C16.7772 67.7137 18.1848 67.1041 18.9112 68.6298C17.727 69.5967 12.9924 70.1217 12.0363 69.3961C11.3238 68.8553 11.4046 68.0277 11.3982 67.2674C11.3744 64.4603 11.4699 61.649 11.3489 58.8469C11.2536 56.64 12.2713 55.7828 14.2515 56.032C15.8513 56.2333 17.8446 55.1132 19.0344 57.1948C18.2436 58.5399 17.0853 57.9979 16.1216 58.0595C15.0104 58.1305 13.9987 58.1601 13.9228 59.6755C13.8484 61.1624 14.5281 61.8275 16.191 61.7936Z" fill="white"/>
<path d="M26.4631 55.9302C27.4377 56.0837 28.2335 56.1059 28.8873 56.4272C29.8309 56.891 30.9316 57.6618 30.352 58.8528C29.5829 60.4331 28.7142 59.182 27.8829 58.6414C27.4318 58.3479 26.8352 58.1092 26.3163 58.1319C24.3425 58.2184 23.2172 60.8991 23.6526 64.332C23.9883 66.9791 25.3888 68.2355 27.4945 67.812C28.3746 67.6351 29.177 66.8088 30.1681 67.4276C29.8312 69.6357 27.6668 70.68 25.1153 69.8921C22.3261 69.0309 20.9538 66.3698 21.096 62.0975C21.2175 58.4438 22.6598 56.7088 26.4631 55.9302Z" fill="white"/>
<path d="M73.353 57.0378C73.4524 59.6022 73.5603 61.922 73.476 64.2345C73.4003 66.3087 73.5639 67.9636 76.263 67.6571C76.9348 67.5808 77.5907 67.8307 77.8476 69.056C76.0517 70.2417 73.9277 69.8854 72.0759 69.4473C70.4312 69.0581 71.069 67.1838 71.0366 65.9145C70.9702 63.3092 70.9537 60.6975 71.0619 58.0948C71.1192 56.7182 71.4839 55.3591 73.353 57.0378Z" fill="white"/>
<path d="M4.25319 58.7881C3.32412 57.9443 2.01593 58.5417 1.31934 57.5412C2.57388 55.4899 7.84793 55.3096 10.1354 57.5609C5.5754 57.7613 6.7069 61.0018 6.64663 63.635C6.61337 65.0881 6.6328 66.5426 6.58554 67.995C6.56292 68.6899 6.42439 69.4439 5.53925 69.4381C4.63139 69.4322 4.56415 68.6447 4.54683 67.9664C4.47027 64.9666 4.42461 61.9659 4.25319 58.7881Z" fill="white"/>
<path d="M107.088 68.6323C105.622 70.2338 104.887 69.3803 104.827 67.971C104.683 64.5884 104.735 61.1962 104.756 57.8082C104.761 56.9993 105.04 56.1949 106.043 56.2375C107.053 56.2803 107.196 57.1188 107.196 57.9203C107.199 61.4054 107.171 64.8905 107.088 68.6323Z" fill="white"/>
<path d="M60.2144 5.75092C63.1324 5.75168 65.8028 5.72468 68.4721 5.76629C69.4825 5.78205 70.7238 5.61348 70.8206 7.1977C70.9228 8.86865 69.7723 9.05526 68.5439 9.05983C65.2065 9.07223 61.8672 9.13515 58.5323 9.04215C56.7 8.99103 55.9077 9.65333 55.9985 11.573C56.0555 12.7763 56.2562 14.355 54.316 14.2566C52.3827 14.1586 52.8589 12.5345 52.8249 11.3775C52.7536 8.94627 52.8608 6.50955 52.7876 4.07845C52.7113 1.54528 53.9219 0.138576 56.3018 0.0743842C60.8755 -0.0490352 65.4543 0.0180235 70.031 0.0195154C71.2233 0.0199081 72.0807 0.425387 72.0348 1.86978C71.9865 3.38869 70.9082 3.54573 69.8354 3.53451C66.3104 3.49768 62.7863 3.35214 59.2614 3.33071C58.0936 3.3236 56.7152 3.07506 56.0856 4.77469C57.1179 6.22267 58.6744 5.4985 60.2144 5.75092Z" fill="#3168D8"/>
<path d="M66.5083 15.8785C63.5902 15.8777 60.9199 15.9047 58.2505 15.8631C57.2401 15.8473 55.9989 16.0159 55.902 14.4317C55.7999 12.7607 56.9504 12.5741 58.1788 12.5696C61.5162 12.5572 64.8554 12.4942 68.1903 12.5872C70.0226 12.6384 70.815 11.9761 70.7241 10.0563C70.6672 8.85306 70.4664 7.27434 72.4067 7.37278C74.3399 7.47082 73.8638 9.09489 73.8977 10.2519C73.9691 12.6831 73.8619 15.1198 73.9351 17.5509C74.0113 20.0841 72.8008 21.4908 70.4209 21.555C65.8472 21.6784 61.2684 21.6114 56.6917 21.6099C55.4994 21.6095 54.642 21.204 54.6879 19.7596C54.7361 18.2407 55.8144 18.0837 56.8873 18.0949C60.4123 18.1317 63.9364 18.2773 67.4613 18.2987C68.6291 18.3058 70.0075 18.5543 70.6371 16.8547C69.6048 15.4067 68.0482 16.1309 66.5083 15.8785Z" fill="white"/>
</svg>
