<svg width="120" height="120" viewBox="0 0 120 120" fill="none" xmlns="http://www.w3.org/2000/svg">
<path d="M0.138281 55.9673C11.7698 82.688 41.2842 87.1688 76.5094 64.5202C92.7563 79.5577 96.8039 97.3842 83.2472 115.329C76.0973 118.336 68.2434 120 60 120C26.8631 120 0 93.1369 0 60C0 58.6453 0.0496875 57.3005 0.138281 55.9673ZM55.0097 44.3691C60.262 22.4808 74.9287 9.92531 97.9837 13.5548C111.423 24.5578 120 41.2762 120 60C120 83.6227 106.347 104.053 86.5031 113.839C104.53 88.1592 89.7984 61.0659 55.0097 44.3691ZM60 0C72.8602 0 84.7734 4.04766 94.5408 10.9359C61.7513 7.12406 46.267 34.4555 48.4298 72.1988C27.1242 78.7336 9.76734 73.9186 0.594844 51.5517C4.70156 22.4152 29.7314 0 60 0Z" fill="#662D91"/>
</svg>
