<svg width="126" height="121" viewBox="0 0 126 121" fill="none" xmlns="http://www.w3.org/2000/svg">
<path d="M123.317 0.081543H67.5307L57.2541 20.6344H0V102.846H123.317V0.081543ZM113.04 20.6344H72.9134L78.2965 10.3581H113.04V20.6344Z" fill="#31AD79"/>
<path d="M75.3345 22.424C102.264 21.4647 124.916 42.5619 125.885 69.5046C126.349 82.4446 121.654 95.0391 112.833 104.518C104.013 113.997 91.7877 119.584 78.8478 120.05C51.9189 121.009 29.2667 99.9119 28.2977 72.9691C27.3287 46.0301 48.4043 23.378 75.3345 22.4237V22.424Z" fill="#FAFAFA"/>
<path d="M103.273 55.7441L94.0826 78.8162L84.8289 55.7432H77.2539L90.2364 87.2381L81.0024 109.45L87.6185 110.756L110.427 55.7435H103.273V55.7441Z" fill="black"/>
<path d="M62.8684 61.5828C66.7099 61.5828 69.8418 63.6135 71.4469 67.1613L71.574 67.4353L78.0285 65.2624L77.8866 64.9345C75.3908 58.9007 69.636 55.1475 62.8684 55.1475C58.1117 55.1475 54.2461 56.6645 51.0506 59.767C47.8746 62.8547 46.2695 66.7353 46.2695 71.306C46.2695 75.8422 47.8746 79.7031 51.0506 82.7861C54.2451 85.8936 58.112 87.4056 62.8684 87.4056C69.636 87.4056 75.3908 83.6524 77.8866 77.6236L78.0285 77.2957L71.564 75.1181L71.4415 75.4068C70.0028 78.891 66.7976 80.9709 62.8681 80.9709C61.6178 81.0005 60.3749 80.7709 59.2177 80.2966C58.0605 79.8223 57.0141 79.1135 56.1443 78.2149C55.2507 77.3052 54.549 76.2252 54.0809 75.0391C53.6128 73.8529 53.3879 72.5848 53.4196 71.31C53.3884 70.0266 53.6134 68.7498 54.0812 67.5542C54.549 66.3586 55.2504 65.2682 56.1443 64.3467C57.0128 63.4457 58.0589 62.7349 59.2163 62.2592C60.3737 61.7834 61.6173 61.5531 62.8684 61.5828Z" fill="black"/>
<path d="M31.3954 83.6669C30.2723 79.6043 29.7043 75.4084 29.707 71.1934C29.707 51.8883 41.931 34.2324 60.1302 27.269L62.5183 33.3956C46.854 39.3903 36.3331 54.5798 36.3331 71.1931C36.329 74.8193 36.8162 78.4293 37.7816 81.9247L31.3954 83.6669Z" fill="#58D09E"/>
<path d="M59.8125 27.4212C63.7735 25.8899 67.9203 24.8911 72.1442 24.451C91.5028 22.435 110.485 32.6477 119.367 49.8729L113.475 52.8676C105.826 38.0401 89.4966 29.2515 72.8338 30.9887C69.1998 31.363 65.6319 32.2205 62.2247 33.5384L59.8131 27.4216L59.8125 27.4212Z" fill="#58D09E"/>
<path d="M98.9102 105.429C107.533 99.9992 113.796 91.5219 116.451 81.684C119.106 71.8461 117.959 61.3691 113.238 52.3385L119.106 49.3047C124.6 59.7908 125.939 71.963 122.855 83.3927C119.771 94.8224 112.491 104.669 102.468 110.968L98.9102 105.429Z" fill="url(#paint0_linear_955_997)"/>
<path d="M82.3315 106.104L80.7214 109.974C80.5659 110.35 80.3067 110.674 79.9739 110.908C79.6411 111.142 79.2486 111.276 78.8423 111.296C78.2992 111.315 77.7511 111.33 77.193 111.33C58.2124 111.32 41.4169 98.0487 37.2574 79.7559L30.793 81.2043C33.1881 91.5535 39.003 100.793 47.2979 107.429C55.7723 114.183 66.2823 117.872 77.1191 117.896H77.2171C77.8532 117.896 78.4846 117.877 79.116 117.857C80.7839 117.786 82.3971 117.242 83.7671 116.288C85.137 115.334 86.2069 114.01 86.8517 112.47L88.9576 107.41L82.3315 106.104Z" fill="url(#paint1_linear_955_997)"/>
<defs>
<linearGradient id="paint0_linear_955_997" x1="120.33" y1="54.3912" x2="106.199" y2="113.362" gradientUnits="userSpaceOnUse">
<stop stop-color="#58D09E"/>
<stop offset="1" stop-color="#D2D2D2" stop-opacity="0"/>
</linearGradient>
<linearGradient id="paint1_linear_955_997" x1="37.7954" y1="89.9251" x2="85.8535" y2="118.609" gradientUnits="userSpaceOnUse">
<stop stop-color="#58D09E"/>
<stop offset="1"/>
</linearGradient>
</defs>
</svg>
