<svg width="120" height="120" viewBox="0 0 120 120" fill="none" xmlns="http://www.w3.org/2000/svg">
<path d="M119.509 67.6185C123.709 34.7447 100.492 4.68984 67.6785 0.49078C34.8647 -3.70875 4.68984 19.5075 0.49078 52.3214C-3.70875 85.1352 19.5075 115.25 52.3214 119.509C85.1952 123.709 115.25 100.492 119.509 67.6185Z" fill="#FF6C37"/>
<path d="M81.654 38.5238L56.3383 63.8395L49.1992 56.7005C74.095 31.8052 76.555 33.9647 81.654 38.5238Z" fill="white"/>
<path d="M56.3414 64.4389C56.1614 64.4389 56.0414 64.3789 55.9214 64.2589L48.7228 57.1203C48.666 57.0661 48.6207 57.001 48.5898 56.9289C48.5589 56.8567 48.543 56.779 48.543 56.7005C48.543 56.622 48.5589 56.5444 48.5898 56.4722C48.6207 56.4 48.666 56.3349 48.7228 56.2808C74.0381 30.965 76.6776 33.3645 82.0167 38.1636C82.1367 38.2836 82.1967 38.4036 82.1967 38.5836C82.1967 38.7636 82.1367 38.8836 82.0167 39.0036L56.7014 64.2589C56.6414 64.3789 56.4614 64.4389 56.3414 64.4389ZM50.0428 56.7003L56.3414 62.9994L80.7571 38.5836C76.3181 34.6245 73.3181 33.4241 50.0428 56.7003Z" fill="#FF6C37"/>
<path d="M63.5978 71.0976L56.6992 64.1986L82.0145 38.8833C88.7936 45.7224 78.6554 56.82 63.5978 71.0976Z" fill="white"/>
<path d="M63.5987 71.6981C63.4187 71.6981 63.2987 71.6381 63.1792 71.5181L56.2802 64.6191C56.1602 64.4991 56.1602 64.379 56.1602 64.199C56.1602 64.0195 56.2202 63.8991 56.3402 63.7795L81.6559 38.4638C81.7101 38.4069 81.7752 38.3616 81.8474 38.3306C81.9196 38.2997 81.9974 38.2837 82.0759 38.2837C82.1545 38.2837 82.2322 38.2997 82.3044 38.3306C82.3766 38.3616 82.4418 38.4069 82.4959 38.4638C83.2618 39.1726 83.867 40.0373 84.2705 40.9996C84.6741 41.962 84.8667 42.9997 84.8354 44.0428C84.7154 50.7019 77.1573 59.16 64.0792 71.5181C63.8992 71.6381 63.7192 71.6981 63.5992 71.6981M57.5406 64.199C61.3797 68.0986 62.9997 69.6581 63.5992 70.2581C73.6773 60.66 83.4554 50.8219 83.5159 44.0428C83.5759 42.4833 82.9759 40.9233 81.9559 39.7238L57.5406 64.199Z" fill="#FF6C37"/>
<path d="M49.3245 56.8808L54.4236 61.9799C54.5436 62.0999 54.5436 62.2199 54.4236 62.3399C54.3636 62.3999 54.3636 62.3999 54.3036 62.3999L43.7455 64.6794C43.2055 64.7394 42.7255 64.3794 42.6055 63.8399C42.5455 63.5399 42.6655 63.2399 42.8455 63.0599L48.9645 56.9408C49.0845 56.8208 49.2645 56.7608 49.3245 56.8808Z" fill="white"/>
<path d="M43.5634 65.2789C42.6634 65.2789 42.0039 64.5589 42.0039 63.6594C42.0039 63.2394 42.1839 62.8193 42.4839 62.5193L48.6025 56.4003C48.9625 56.1003 49.4425 56.1003 49.8025 56.4003L54.9015 61.4994C55.2615 61.7994 55.2615 62.3394 54.9015 62.6994C54.7816 62.8194 54.6615 62.8793 54.4815 62.9393L43.9234 65.2189C43.8034 65.2189 43.6834 65.2789 43.5634 65.2789ZM49.1425 57.5403L43.2634 63.4193C43.1434 63.5393 43.0834 63.7193 43.2034 63.8993C43.2634 64.0793 43.4434 64.1389 43.6234 64.0793L53.5216 61.9194L49.1425 57.5403Z" fill="#FF6C37"/>
<path d="M95.0324 24.4862C91.1934 20.7666 85.0143 20.8866 81.2953 24.7862C77.5757 28.6852 77.6957 34.8043 81.5953 38.5233C83.1343 40.0105 85.1223 40.9464 87.2491 41.1852C89.3759 41.424 91.5219 40.9522 93.3524 39.8433L86.5134 33.0043L95.0324 24.4862Z" fill="white"/>
<path d="M88.3142 41.8237C82.6151 41.8237 77.9961 37.2047 77.9961 31.5056C77.9961 25.8066 82.6151 21.1875 88.3142 21.1875C90.9533 21.1875 93.5333 22.2075 95.4533 24.067C95.5728 24.187 95.6328 24.307 95.6328 24.487C95.6328 24.667 95.5728 24.787 95.4528 24.907L87.3542 33.0051L93.7133 39.3642C93.9533 39.6042 93.9533 39.9642 93.7133 40.2042L93.5933 40.3242C92.0333 41.2837 90.1737 41.8237 88.3142 41.8237ZM88.3142 22.448C83.2751 22.448 79.1956 26.527 79.2556 31.5661C79.2556 36.6051 83.3352 40.6847 88.3742 40.6247C89.7537 40.6247 91.1337 40.3247 92.3933 39.6647L86.0947 33.4256C85.9747 33.3056 85.9147 33.1856 85.9147 33.0056C85.9147 32.8261 85.9747 32.7056 86.0947 32.5861L94.1333 24.547C92.5133 23.1675 90.4737 22.448 88.3142 22.448Z" fill="#FF6C37"/>
<path d="M95.2176 24.6664L95.0977 24.5464L86.5195 33.0045L93.2981 39.7836C93.9581 39.3636 94.6177 38.8836 95.1577 38.3436C96.0665 37.4533 96.7896 36.3916 97.2851 35.2199C97.7806 34.0481 98.0387 32.7897 98.0443 31.5175C98.0498 30.2453 97.8029 28.9847 97.3177 27.8086C96.8325 26.6326 96.1187 25.5645 95.2176 24.6664Z" fill="white"/>
<path d="M93.3527 40.4435C93.1727 40.4435 93.0527 40.3835 92.9327 40.2635L86.0936 33.4244C85.9741 33.3044 85.9141 33.1844 85.9141 33.0044C85.9141 32.8249 85.9741 32.7044 86.0941 32.5849L94.6122 24.0663C94.6663 24.0094 94.7315 23.9641 94.8037 23.9331C94.8759 23.9022 94.9536 23.8862 95.0322 23.8862C95.1107 23.8862 95.1885 23.9022 95.2607 23.9331C95.3329 23.9641 95.398 24.0094 95.4522 24.0663L95.6322 24.1863C99.6517 28.2054 99.6517 34.6844 95.6922 38.7635C95.0922 39.3635 94.4327 39.9035 93.7127 40.3235C93.5327 40.3835 93.4127 40.4435 93.3527 40.4435ZM87.3536 33.0044L93.4127 39.0635C93.8927 38.7635 94.3727 38.3435 94.7322 37.9839C98.1517 34.5644 98.3317 28.9854 95.0322 25.3858L87.3536 33.0044Z" fill="#FF6C37"/>
<path d="M82.6786 39.6041C81.9861 38.9127 81.0476 38.5244 80.069 38.5244C79.0905 38.5244 78.152 38.9127 77.4595 39.6041L54.8438 62.2199L58.6228 65.9994L82.5586 45.0032C84.1186 43.6832 84.2381 41.3437 82.9186 39.7841C82.7986 39.7241 82.7386 39.6641 82.6786 39.6041Z" fill="white"/>
<path d="M58.5588 66.5989C58.3788 66.5989 58.2588 66.5389 58.1388 66.4189L54.3598 62.6393C54.3029 62.5852 54.2576 62.52 54.2266 62.4478C54.1956 62.3756 54.1797 62.2979 54.1797 62.2193C54.1797 62.1408 54.1956 62.0631 54.2266 61.9909C54.2576 61.9187 54.3029 61.8535 54.3598 61.7993L76.9755 39.1836C77.3726 38.7843 77.8446 38.4675 78.3645 38.2513C78.8845 38.0351 79.442 37.9238 80.005 37.9238C80.5681 37.9238 81.1256 38.0351 81.6456 38.2513C82.1655 38.4675 82.6375 38.7843 83.0346 39.1836C83.4338 39.5806 83.7507 40.0527 83.9668 40.5726C84.183 41.0925 84.2943 41.65 84.2943 42.2131C84.2943 42.7762 84.183 43.3337 83.9668 43.8536C83.7507 44.3735 83.4338 44.8456 83.0346 45.2426L82.8546 45.4226L58.9188 66.4189C58.8588 66.5389 58.7388 66.5989 58.5588 66.5989ZM55.6793 62.2193L58.6188 65.1589L82.1346 44.5226C83.4546 43.4426 83.5746 41.4631 82.4946 40.1436C81.415 38.8236 79.435 38.7036 78.1155 39.7836C78.0555 39.8436 77.9955 39.9036 77.8755 39.9636L55.6793 62.2193Z" fill="#FF6C37"/>
<path d="M37.502 87.9552C37.2625 88.0752 37.1425 88.3152 37.202 88.5552L38.222 92.8743C38.462 93.4743 38.102 94.1943 37.442 94.3743C36.9625 94.5543 36.4225 94.3743 36.1225 94.0143L29.5234 87.4752L51.0597 65.9395L58.4987 66.0595L63.5378 71.0985C62.3378 72.118 55.0792 79.1371 37.502 87.9552Z" fill="white"/>
<path d="M37.0216 94.9732C36.5416 94.9732 36.0616 94.7937 35.7616 94.4337L29.2225 87.8946C29.103 87.7746 29.043 87.6546 29.043 87.4751C29.043 87.2951 29.103 87.1751 29.223 87.0551L50.7587 65.5189C50.8787 65.3989 51.0587 65.3389 51.1787 65.3389L58.6178 65.4589C58.7973 65.4589 58.9178 65.5189 59.0373 65.6389L64.0764 70.6779C64.1964 70.7979 64.2564 70.9779 64.2564 71.1579C64.2564 71.3379 64.1964 71.4579 64.0164 71.5779L63.5964 71.9375C57.2378 77.5165 48.5992 83.0956 37.8611 88.4346L38.8811 92.6942C39.0611 93.4737 38.7011 94.3137 37.9811 94.7332C37.6211 94.9137 37.3211 94.9732 37.0216 94.9732ZM30.4225 87.4756L36.6016 93.5942C36.7816 93.8942 37.1416 94.0142 37.4411 93.8342C37.7411 93.6542 37.8611 93.2942 37.6811 92.9942L36.6616 88.6751C36.5416 88.1351 36.7816 87.6551 37.2616 87.4156C47.8792 82.0765 56.4578 76.5575 62.7568 71.0984L58.3178 66.6593L51.4187 66.5393L30.4225 87.4756Z" fill="#FF6C37"/>
<path d="M24.4263 92.6342L29.5849 87.4751L37.2639 95.1532L25.0258 94.3137C24.4858 94.2537 24.1258 93.7737 24.1863 93.2337C24.1863 92.9937 24.2463 92.7537 24.4258 92.6337" fill="white"/>
<path d="M37.2653 95.6931L24.9672 94.8536C24.0672 94.7936 23.4672 94.0136 23.5276 93.1136C23.5876 92.7536 23.7076 92.3941 24.0076 92.1541L29.1667 86.995C29.2208 86.9382 29.286 86.893 29.3581 86.862C29.4303 86.8311 29.508 86.8152 29.5864 86.8152C29.6649 86.8152 29.7426 86.8311 29.8148 86.862C29.8869 86.893 29.9521 86.9382 30.0062 86.995L37.6848 94.6731C37.8648 94.8536 37.9248 95.0936 37.8048 95.3331C37.6848 95.5731 37.5048 95.6931 37.2653 95.6931ZM29.5862 88.315L24.8472 93.0541C24.6672 93.1736 24.6672 93.4736 24.8472 93.5936C24.9072 93.6536 24.9672 93.7136 25.0872 93.7136L35.7053 94.4336L29.5862 88.315ZM48.9629 68.6983C48.6029 68.6983 48.3629 68.3983 48.3629 68.0983C48.3629 67.9183 48.4229 67.7983 48.5429 67.6783L54.362 61.8593C54.4161 61.8024 54.4813 61.7571 54.5535 61.7261C54.6257 61.6952 54.7034 61.6792 54.782 61.6792C54.8605 61.6792 54.9383 61.6952 55.0105 61.7261C55.0827 61.7571 55.1478 61.8024 55.202 61.8593L58.981 65.6388C59.161 65.8188 59.221 65.9988 59.161 66.2388C59.101 66.4188 58.921 66.5988 58.681 66.6588L49.0829 68.6979L48.9629 68.6983ZM54.782 63.1193L50.8224 67.0783L57.3015 65.6988L54.782 63.1193Z" fill="#FF6C37"/>
<path d="M58.501 66.0589L51.9024 67.4984C51.4224 67.6184 50.9424 67.3184 50.8224 66.8384C50.7624 66.5384 50.8224 66.2384 51.0624 65.9989L54.7219 62.3394L58.501 66.0589Z" fill="white"/>
<path d="M51.7852 68.0987C51.5877 68.1007 51.3917 68.0633 51.2088 67.9886C51.0259 67.9139 50.8598 67.8035 50.7201 67.6638C50.5804 67.5242 50.47 67.358 50.3953 67.1751C50.3207 66.9922 50.2832 66.7963 50.2852 66.5987C50.2852 66.1792 50.4652 65.8192 50.7052 65.5192L54.3648 61.8597C54.4189 61.8028 54.4841 61.7575 54.5563 61.7265C54.6285 61.6955 54.7062 61.6796 54.7848 61.6796C54.8633 61.6796 54.941 61.6955 55.0132 61.7265C55.0854 61.7575 55.1506 61.8028 55.2048 61.8597L58.9838 65.6392C59.1638 65.8192 59.2238 65.9992 59.1638 66.2392C59.1038 66.4192 58.9238 66.5992 58.6838 66.6592L52.0852 68.0987H51.7852ZM54.7848 63.1197L51.5452 66.3587C51.4252 66.4792 51.4252 66.5992 51.4852 66.7187C51.5452 66.8387 51.6652 66.8987 51.8452 66.8987L57.3643 65.6987L54.7848 63.1197ZM95.2772 30.4253C95.1572 30.0658 94.7372 29.8858 94.3772 30.0058C94.0177 30.1258 93.8377 30.5453 93.9577 30.9058C93.9577 30.9653 94.0177 31.0253 94.0177 31.0853C94.3777 31.8053 94.2577 32.7053 93.7777 33.3648C93.5377 33.6648 93.5977 34.0848 93.8377 34.3248C94.1377 34.5648 94.5572 34.5048 94.7972 34.2048C95.6972 33.0648 95.8772 31.6253 95.2772 30.4253Z" fill="#FF6C37"/>
</svg>
