<svg width="115" height="120" viewBox="0 0 115 120" fill="none" xmlns="http://www.w3.org/2000/svg">
<path d="M104.935 0.0015826C105.079 -0.00764929 105.223 0.0236443 105.35 0.0919029C105.477 0.160162 105.582 0.262644 105.654 0.387692C105.725 0.51274 105.76 0.655331 105.755 0.799243C105.749 0.943155 105.703 1.08261 105.622 1.20174L75.9107 41.4859C75.8031 41.6072 75.6709 41.7043 75.5229 41.7708C75.3749 41.8372 75.2144 41.8716 75.0521 41.8716C74.8898 41.8716 74.7293 41.8372 74.5813 41.7708C74.4333 41.7043 74.3011 41.6072 74.1934 41.4859L63.7171 29.8293C63.5908 29.6984 63.4366 29.5975 63.266 29.5341C63.0954 29.4707 62.9127 29.4463 62.7314 29.4628C62.5501 29.4793 62.3748 29.5362 62.2185 29.6294C62.0621 29.7225 61.9288 29.8495 61.8282 30.001L55.4735 38.0577C55.3748 38.2804 55.3387 38.5256 55.369 38.7672C55.3993 39.0088 55.4949 39.2377 55.6456 39.4292L74.5367 58.9712C74.6444 59.0925 74.7766 59.1897 74.9247 59.2562C75.0727 59.3227 75.2332 59.3571 75.3956 59.3571C75.558 59.3571 75.7185 59.3227 75.8665 59.2562C76.0146 59.1897 76.1468 59.0925 76.2545 58.9712L113.35 17.316C113.457 17.2009 113.596 17.1203 113.749 17.0842C113.902 17.0482 114.062 17.0583 114.209 17.1135C114.357 17.1686 114.484 17.2662 114.576 17.3939C114.667 17.5215 114.719 17.6735 114.724 17.8304V119.141C114.731 119.256 114.713 119.37 114.673 119.478C114.632 119.585 114.569 119.682 114.488 119.763C114.406 119.844 114.309 119.907 114.202 119.948C114.094 119.988 113.979 120.006 113.865 119.998H0.860635C0.746016 120.006 0.631202 119.988 0.523797 119.948C0.416392 119.907 0.318848 119.844 0.237625 119.763C0.156401 119.682 0.0933513 119.585 0.0526512 119.478C0.0119511 119.37 -0.00547067 119.256 0.00153968 119.141V0.859093C-0.00553687 0.744645 0.0118358 0.630002 0.0525063 0.522763C0.0931768 0.415523 0.156216 0.318136 0.237447 0.237055C0.318678 0.155974 0.416246 0.0930506 0.523683 0.0524552C0.631121 0.0118597 0.745976 -0.00548089 0.860635 0.0015826H104.935ZM75.7391 68.3998C73.2089 68.3553 70.6959 68.8229 68.3516 69.7742C66.0074 70.7254 63.8804 72.1408 62.099 73.9349C60.3176 75.7289 58.9187 77.8645 57.9867 80.2129C57.0546 82.5612 56.6087 85.0737 56.6759 87.5987C56.6759 99.4272 65.2628 106.97 76.4257 106.97C81.5934 107.098 86.6609 105.533 90.8524 102.513C91.0404 102.342 91.1611 102.11 91.1926 101.859C91.2241 101.607 91.1643 101.353 91.024 101.141L87.9327 96.5129C87.7648 96.3208 87.5319 96.1971 87.2784 96.1655C87.025 96.1339 86.7688 96.1966 86.5587 96.3416C83.8719 98.1731 80.7097 99.1856 77.4568 99.2558C71.4454 99.2558 67.6671 95.4845 66.9805 91.0274C66.9866 90.9385 67.0247 90.8549 67.0878 90.7919C67.1509 90.7289 67.2348 90.6908 67.3238 90.6848H93.2567C93.524 90.6667 93.7757 90.5524 93.9652 90.3633C94.1546 90.1741 94.2689 89.9228 94.287 89.6559V88.6271C94.287 76.6278 86.7303 68.3993 75.7391 68.3993M50.15 61.885C44.9336 57.629 38.3331 55.433 31.6017 55.7138C19.9234 55.7138 12.7105 62.5708 12.7105 70.7992C12.7105 89.4842 41.2193 83.4843 41.2193 92.2271C41.2193 94.9696 38.4713 97.7126 32.6324 97.7126C27.0867 97.7582 21.7363 95.671 17.6912 91.884C17.5718 91.7726 17.43 91.6879 17.2751 91.6356C17.1203 91.5833 16.9561 91.5646 16.7934 91.5809C16.6308 91.5971 16.4735 91.6478 16.332 91.7296C16.1906 91.8115 16.0684 91.9225 15.9735 92.0554L11.5086 98.227C11.3684 98.4384 11.3086 98.693 11.3402 98.9446C11.3718 99.1961 11.4925 99.4281 11.6807 99.5985C16.3176 103.884 22.844 106.799 31.9458 106.799C45.3414 106.799 51.8677 99.9411 52.211 91.0274C52.211 72.5138 23.7022 77.8279 23.7022 69.9426C23.7022 67.0283 26.2786 64.9711 30.7435 64.9711C35.6658 64.9037 40.4597 66.5391 44.3111 69.5995C44.4231 69.6911 44.5524 69.7595 44.6914 69.8006C44.8303 69.8416 44.976 69.8545 45.12 69.8386C45.264 69.8226 45.4034 69.7781 45.5299 69.7076C45.6564 69.6371 45.7675 69.5421 45.8567 69.4282L50.3221 63.4283C50.4139 63.3164 50.4824 63.1874 50.5235 63.0487C50.5646 62.91 50.5776 62.7645 50.5616 62.6208C50.5456 62.4771 50.501 62.338 50.4304 62.2117C50.3598 62.0854 50.2646 61.9745 50.1504 61.8855M75.9112 75.942C80.5822 75.6812 84.6151 79.1748 85.0135 83.8278C85.0074 83.9167 84.9693 84.0004 84.9062 84.0634C84.8431 84.1264 84.7592 84.1644 84.6702 84.1705H67.1522C67.0631 84.1644 66.9793 84.1264 66.9162 84.0634C66.8531 84.0004 66.815 83.9167 66.8089 83.8278C67.3834 79.2661 71.306 75.8678 75.9112 75.942Z" fill="#2CB134"/>
</svg>
