<svg width="92" height="120" viewBox="0 0 92 120" fill="none" xmlns="http://www.w3.org/2000/svg">
<path d="M87.2634 0H43.4375C43.4375 10.9254 52.2823 19.7682 63.2028 19.7682H71.2664V27.5707C71.2664 38.4961 80.1102 47.3399 91.0356 47.3399V3.7712C91.0346 2.77116 90.6368 1.81239 89.9295 1.10535C89.2223 0.398309 88.2634 0.000770709 87.2634 0Z" fill="#2684FF"/>
<path d="M65.5486 21.8496H21.7227C21.7227 32.775 30.5626 41.6159 41.488 41.6159H49.5506V49.4203C49.5506 60.3458 58.3943 69.1905 69.3198 69.1905V25.6218C69.319 24.6217 68.9214 23.6629 68.2144 22.9556C67.5074 22.2484 66.5486 21.8506 65.5486 21.8496Z" fill="url(#paint0_linear_955_994)"/>
<path d="M43.8298 43.6973H0C0 54.6227 8.84379 63.4665 19.7682 63.4665H27.8327V71.2719C27.8327 82.1934 36.6756 91.0372 47.601 91.0372V47.4694C47.6002 46.4694 47.2027 45.5105 46.4956 44.8033C45.7886 44.0961 44.8298 43.6983 43.8298 43.6973Z" fill="url(#paint1_linear_955_994)"/>
<path d="M28.3684 95.9344H31.7009V112.413C31.7009 116.761 29.7183 119.794 25.1154 119.794C23.388 119.794 22.0342 119.506 21.1055 119.18V116.022C22.1215 116.431 23.3453 116.636 24.57 116.636C27.3979 116.636 28.3684 114.999 28.3684 112.618V95.9344ZM37.8226 94.6611C39.1308 94.6611 40.0595 95.4414 40.0595 96.833C40.0595 98.1858 39.1308 99.0088 37.8226 99.0088C36.5154 99.0088 35.5866 98.2276 35.5866 96.833C35.5866 95.4841 36.5154 94.6611 37.8226 94.6611ZM36.1777 101.59H39.385V119.631H36.1777V101.59ZM47.3185 119.631H44.1966V101.59H47.3195V104.748C48.419 102.614 50.2765 101.098 53.9041 101.303V104.339C49.8107 103.929 47.3195 105.116 47.3195 108.972L47.3185 119.631ZM68.8928 116.39C67.7098 118.77 65.4729 120 62.5994 120C57.6646 120 55.1734 115.938 55.1734 110.609C55.1734 105.525 57.7888 101.222 62.9827 101.222C65.6815 101.222 67.7933 102.409 68.8928 104.748V101.59H72.1002V119.631H68.8928V116.39ZM63.4456 117.129C66.3152 117.129 68.8472 115.367 68.8472 111.348V109.915C68.8472 105.897 66.5278 104.134 63.7823 104.134C60.1965 104.134 58.3381 106.428 58.3381 110.609C58.3808 114.956 60.1548 117.129 63.4456 117.129Z" fill="#253858"/>
<defs>
<linearGradient id="paint0_linear_955_994" x1="68.4086" y1="21.8987" x2="49.7611" y2="41.1266" gradientUnits="userSpaceOnUse">
<stop offset="0.176" stop-color="#0052CC"/>
<stop offset="1" stop-color="#2684FF"/>
</linearGradient>
<linearGradient id="paint1_linear_955_994" x1="47.9508" y1="43.866" x2="26.3902" y2="64.8425" gradientUnits="userSpaceOnUse">
<stop offset="0.176" stop-color="#0052CC"/>
<stop offset="1" stop-color="#2684FF"/>
</linearGradient>
</defs>
</svg>
