<svg width="322" height="120" viewBox="0 0 322 120" fill="none" xmlns="http://www.w3.org/2000/svg">
<path d="M58.2397 3.62775C58.2397 3.62775 54.9327 -1.72762 51.0501 0.575186C49.1757 1.69981 46.0428 4.83271 42.3074 9.38478L45.7483 15.8648C47.8595 12.8006 50.1719 9.87996 52.6701 7.12213C51.6124 8.32709 49.3765 11.1119 46.1901 15.9853C50.6618 15.6773 55.1068 15.1284 59.525 14.3385C60.8504 6.98825 58.2397 3.62775 58.2397 3.62775ZM12.1835 87.0377C8.44802 97.3405 4.99254 107.743 1.82083 118.233C1.68929 118.656 1.4537 119.04 1.1356 119.348C0.817504 119.657 0.427062 119.881 0 120C3.07934 109.825 6.1319 100.239 9.19785 91.563C7.28331 91.1211 4.56546 91.6567 1.24512 93.0357C3.52116 91.2952 5.7838 89.7957 7.93934 89.6618C7.25653 89.5145 5.48926 88.8987 3.1195 86.7164C5.38215 87.5598 7.35025 87.9749 8.76942 87.6803C8.47488 83.9048 6.43984 80.0489 3.76215 76.1663C3.74876 76.1395 7.51091 78.3218 8.88992 80.5845L8.9167 80.2765C9.1443 77.3311 9.55934 74.4124 10.1618 71.5205V71.4937C10.617 69.1641 11.1793 66.8345 11.8622 64.5049L12.7458 61.5193C13.1207 60.3545 13.5491 59.163 13.9909 57.9044C15.4636 53.8745 17.1372 49.9249 19.0116 46.0691L19.4936 45.1051C21.2073 41.6643 23.0281 38.2636 24.956 34.9299C25.9736 33.1492 27.0179 31.4221 28.0488 29.7084C28.1425 29.6147 28.196 29.4808 28.2764 29.3603L28.2496 29.3335L28.3567 29.1595C31.5164 24.0719 34.8903 19.1182 38.4516 14.3251C39.4439 12.9814 40.4661 11.6601 41.5175 10.3621L42.2941 9.39816L45.7215 15.8514C44.4838 17.6264 43.2875 19.4299 42.1334 21.2603C39.8306 24.9555 37.6483 28.7444 35.6132 32.5869L32.7079 38.1297L29.7357 32.2522L32.6812 38.1431L32.5874 38.344C31.9984 39.5489 31.3825 40.7539 30.8068 41.9588C30.454 42.6684 30.1103 43.3825 29.7759 44.101L27.0179 50.0454C24.372 55.9997 21.8278 61.9985 19.3864 68.0395L16.9765 74.158C16.8019 74.6192 16.6234 75.0789 16.441 75.537C15.8519 77.157 15.2226 78.7368 14.6469 80.3167V80.3702L14.2051 81.5484L12.3174 86.6494L12.1835 87.0377ZM55.495 25.143C54.1709 27.7463 52.6771 30.2598 51.0233 32.6673C49.6041 34.6621 48.1314 36.0144 44.9048 37.5273L45.1993 37.4737C45.2261 37.4469 45.2395 37.4469 45.2797 37.4469C46.9532 37.139 49.0284 36.4562 50.2334 35.7466C50.4061 35.6588 50.5679 35.551 50.7154 35.4253C50.6476 35.827 50.5582 36.2248 50.4476 36.6168C50.3673 36.9515 50.2334 37.3398 50.0995 37.7549L49.9388 38.1967L49.4569 39.4284C49.0438 40.4555 48.5882 41.4649 48.0912 42.4542C47.9841 42.7086 47.8503 42.963 47.7164 43.2173L47.395 43.7395C47.0645 44.2879 46.6883 44.8074 46.2704 45.2926L45.7349 45.8816C45.2596 46.3638 44.7543 46.8155 44.222 47.2339C43.1068 48.0571 41.8923 48.7363 40.6071 49.2555L40.8347 49.2287L41.6916 49.0815C43.4187 48.6664 45.0521 47.9435 46.5248 46.9393C44.6772 50.6211 42.1602 53.5934 38.1169 55.133L38.8131 55.0393L39.4825 54.8921C40.6633 54.6587 41.8072 54.2669 42.8831 53.7273C42.1655 55.9534 41.3616 58.1507 40.4732 60.3144C39.5226 62.644 38.5319 64.7326 37.4608 66.6069C36.1579 68.9553 34.5853 71.1435 32.7749 73.1271C29.0797 77.1168 23.336 80.3568 19.025 80.8924L19.2392 80.9326C24.1393 81.9501 29.2136 80.3033 32.5741 76.5947C32.1346 77.4479 31.6612 78.2831 31.1549 79.0983C29.1734 82.3116 26.8974 84.2663 22.3988 86.2879C25.4782 86.462 27.0848 85.739 28.3969 84.0788C28.1827 84.5342 27.9504 84.9808 27.7007 85.4177C24.8222 90.184 19.2124 91.8173 12.7458 91.5228C14.1416 92.8049 14.9782 94.5838 15.0754 96.4765C14.0846 94.6825 13.0403 93.116 11.7149 92.5002L13.2679 88.0284C13.3438 87.7827 13.4332 87.5413 13.5357 87.3054V87.2251L15.303 82.2714C15.4329 81.9643 15.549 81.6516 15.6511 81.3342L15.6912 81.2003L17.9673 75.122L18.061 74.8274L20.3103 69.0035C21.1269 66.8747 21.9704 64.8263 22.7737 62.8448C24.4205 58.8149 26.1208 54.8117 27.8881 50.8354C28.5843 49.2823 29.2403 47.7828 29.9231 46.3368L30.5926 44.8909L31.8912 42.1463C32.2661 41.3028 32.6812 40.5129 33.0694 39.6962L33.4309 38.9196C33.4577 38.8929 33.4711 38.8393 33.4577 38.7724L33.538 38.759C34.5288 36.7507 35.4526 34.863 36.3898 33.0957C38.398 29.213 40.5268 25.3839 42.7359 21.6218L42.9099 21.3139C44.0881 19.3324 45.1993 17.5651 46.2035 16.0121C50.6618 15.7041 55.1068 15.1552 59.525 14.4054C59.3777 15.1016 59.2304 15.838 59.0162 16.6145C58.7218 17.6316 58.3868 18.6366 58.0121 19.6269C57.2791 21.5144 56.4433 23.3603 55.5084 25.1563L55.495 25.143ZM86.9712 34.1668V95.7C86.9712 99.4487 86.4223 102.756 85.2977 105.5C84.2946 108.121 82.6894 110.469 80.6117 112.355C78.5739 114.211 76.1439 115.584 73.5025 116.372C70.7846 117.215 67.7455 117.644 64.4787 117.644C61.5083 117.673 58.5455 117.341 55.6557 116.653C55.48 116.604 55.3249 116.499 55.2139 116.354C55.1028 116.209 55.0418 116.032 55.0398 115.85V104.577C55.0391 104.451 55.0666 104.326 55.1203 104.212C55.174 104.098 55.2525 103.998 55.3501 103.918C55.4477 103.839 55.5619 103.782 55.6843 103.752C55.8067 103.722 55.9341 103.72 56.0574 103.746C57.0883 103.987 58.2263 104.188 59.4045 104.349C61.5734 104.67 64.4385 104.751 66.6342 104.215C67.6314 103.97 68.5554 103.49 69.3288 102.814C70.1021 102.139 70.7024 101.288 71.0792 100.332C71.5799 98.9936 71.8163 97.5705 71.7754 96.1418V34.1534C71.7754 33.6848 72.1369 33.3099 72.6055 33.3099H86.1278C86.6098 33.3099 86.9712 33.6848 86.9712 34.1534V34.1668ZM201.951 53.4461C200.014 51.4414 197.641 49.9111 195.016 48.9744C192.122 47.9189 189.059 47.4016 185.979 47.4481C182.578 47.4481 179.418 47.997 176.58 49.1216C173.795 50.2195 171.292 51.9332 169.283 54.1691C167.171 56.5817 165.576 59.4025 164.597 62.4565C163.433 66.1764 162.877 70.06 162.951 73.9572C162.951 78.2415 163.54 82.0706 164.758 85.3106C165.99 88.5238 167.73 91.2416 169.926 93.3838C172.122 95.4858 174.799 97.079 177.825 98.1367C181.028 99.2042 184.384 99.738 187.759 99.7165C189.674 99.7165 191.334 99.6496 192.807 99.5157C195.595 99.3041 198.342 98.7187 200.974 97.7752C202.246 97.3334 203.477 96.7844 204.629 96.1686C204.765 96.1002 204.878 95.9947 204.956 95.8644C205.035 95.734 205.074 95.5842 205.071 95.4322V85.1231C205.066 84.983 205.027 84.8462 204.957 84.725C204.886 84.6038 204.787 84.502 204.667 84.4289C204.548 84.3559 204.412 84.3137 204.272 84.3064C204.132 84.299 203.992 84.3266 203.866 84.3868C200.41 86.205 196.663 87.4057 192.793 87.9347C191.428 88.0686 190.062 88.1355 188.683 88.1221C187.169 88.1561 185.661 87.9064 184.238 87.3858C183.014 86.8985 181.905 86.1596 180.985 85.2168C180.073 84.1878 179.368 82.9922 178.91 81.6957C178.482 80.4181 178.221 79.0906 178.133 77.7461H207.012C207.233 77.7461 207.446 77.6591 207.604 77.5038C207.761 77.3485 207.852 77.1374 207.855 76.916V70.4494C207.913 67.1499 207.397 63.8654 206.329 60.7428C205.421 58.0237 203.926 55.5374 201.951 53.4595V53.4461ZM178.414 67.2228C178.709 64.3309 179.499 62.1754 180.771 60.8231C181.441 60.0945 182.26 59.5179 183.173 59.1322C184.085 58.7465 185.069 58.5607 186.059 58.5873C187.196 58.5619 188.323 58.8002 189.353 59.2835C190.29 59.7253 191.093 60.3947 191.709 61.2114C192.36 62.0953 192.837 63.0948 193.115 64.1568C193.383 65.1074 193.557 66.1383 193.623 67.2228H178.414ZM321.309 48.653V61.1578C321.309 61.2838 321.28 61.408 321.224 61.521C321.169 61.6341 321.088 61.7331 320.989 61.8105C320.89 61.8879 320.774 61.9417 320.651 61.9678C320.528 61.9939 320.4 61.9916 320.278 61.9611C319.175 61.6409 318.023 61.5185 316.877 61.5997L315.806 61.5461C314.186 61.5461 312.687 61.7603 311.294 62.1754C310.03 62.5514 308.871 63.216 307.907 64.1167C306.914 65.1085 306.167 66.3189 305.725 67.6512C305.203 69.1239 304.935 70.9716 304.935 73.1539V98.0028C304.935 98.2265 304.846 98.441 304.688 98.5992C304.53 98.7574 304.315 98.8463 304.091 98.8463H290.783C290.56 98.8463 290.345 98.7574 290.187 98.5992C290.029 98.441 289.94 98.2265 289.94 98.0028V49.202C289.94 48.7334 290.315 48.3585 290.783 48.3585H300.865C301.24 48.3585 301.574 48.6263 301.668 48.9744L303.328 55.1598C303.864 54.2628 304.466 53.4193 305.109 52.6026C306.732 50.4248 309.021 48.8359 311.629 48.0773C313.51 47.5088 315.483 47.3088 317.44 47.4882C317.882 47.4882 318.31 47.4882 318.725 47.5686C319.102 47.5967 319.478 47.6459 319.85 47.7159C320.149 47.7293 320.446 47.7788 320.733 47.8631C320.904 47.9127 321.054 48.0167 321.16 48.1592C321.267 48.3018 321.31 48.4752 321.309 48.653ZM241.567 86.0603C241.678 86.1333 241.769 86.2327 241.832 86.3495C241.896 86.4663 241.929 86.597 241.929 86.7297V96.6506C241.933 96.8025 241.893 96.9524 241.815 97.0827C241.736 97.2131 241.623 97.3186 241.487 97.3869C239.94 98.1485 238.302 98.7108 236.614 99.0605C232.544 99.9709 228.313 99.9441 224.243 98.9534C222.344 98.4541 220.594 97.5033 219.142 96.182C217.605 94.6978 216.432 92.8788 215.714 90.8668C214.863 88.2398 214.465 85.4872 214.536 82.7266V59.993H208.993C208.774 59.9896 208.565 59.901 208.41 59.7461C208.255 59.5912 208.167 59.382 208.163 59.163V53.5398C208.161 53.3965 208.197 53.2551 208.267 53.1303C208.338 53.0055 208.441 52.9019 208.565 52.8302L215.647 48.5058L219.396 38.4644C219.456 38.3069 219.562 38.1713 219.701 38.0757C219.84 37.98 220.004 37.9288 220.173 37.9289H228.688C229.156 37.9289 229.518 38.3038 229.518 38.7724V48.3317H240.563C241.019 48.3317 241.407 48.7066 241.407 49.1618V59.163C241.407 59.3867 241.318 59.6012 241.16 59.7594C241.002 59.9176 240.787 60.0064 240.563 60.0064H229.518V82.6998C229.518 84.36 229.906 85.5649 230.656 86.2879C231.07 86.6731 231.557 86.9711 232.088 87.1643C232.619 87.3575 233.184 87.442 233.749 87.4126C235.007 87.4126 236.172 87.2653 237.27 87.0109C238.461 86.7163 239.64 86.3415 240.804 85.9398C240.93 85.8927 241.065 85.8767 241.197 85.893C241.33 85.9093 241.457 85.9575 241.567 86.0335V86.0603ZM159.831 34.1668V98.0296C159.824 98.2463 159.734 98.4521 159.58 98.6042C159.425 98.7562 159.218 98.8429 159.001 98.8463H146.376C146.152 98.8463 145.937 98.7574 145.779 98.5992C145.621 98.441 145.532 98.2265 145.532 98.0028V65.2011L145.72 58.8684L145.854 55.6284L145.961 53.1248L132.331 98.2438C132.279 98.4157 132.173 98.566 132.028 98.6722C131.883 98.7785 131.708 98.8348 131.528 98.8329H119.077C118.898 98.8327 118.723 98.7755 118.579 98.6696C118.434 98.5637 118.327 98.4146 118.273 98.2438L105.836 53.7942C106.052 57.7186 106.199 61.6465 106.277 65.576C106.318 66.5668 106.344 67.4772 106.344 68.3073V98.0028C106.344 98.2265 106.255 98.441 106.097 98.5992C105.939 98.7574 105.725 98.8463 105.501 98.8463H93.4111C93.1874 98.8463 92.9728 98.7574 92.8147 98.5992C92.6565 98.441 92.5676 98.2265 92.5676 98.0028V34.1534C92.5676 33.6982 92.9291 33.3099 93.3977 33.3099H111.82C112.222 33.3099 112.53 33.5777 112.637 33.9392L125.771 80.4372L139.775 33.9258C139.829 33.755 139.936 33.6059 140.081 33.5C140.225 33.3941 140.399 33.3369 140.579 33.3367H159.001C159.456 33.3367 159.831 33.6982 159.831 34.1534V34.1668ZM282.134 53.4461C280.202 51.4428 277.833 49.9125 275.213 48.9744C272.314 47.917 269.247 47.3997 266.162 47.4481C262.775 47.4481 259.602 47.997 256.777 49.1216C253.992 50.2195 251.488 51.9332 249.48 54.1691C247.367 56.5817 245.772 59.4025 244.794 62.4565C243.629 66.1785 243.054 70.0611 243.134 73.9572C243.134 78.2415 243.75 82.0706 244.941 85.3106C246.186 88.5238 247.927 91.2416 250.123 93.3838C252.318 95.4858 254.996 97.079 258.022 98.1367C261.224 99.2042 264.58 99.738 267.956 99.7165C269.871 99.7165 271.517 99.6496 272.99 99.5157C277.12 99.2051 281.145 98.0668 284.825 96.1686C284.961 96.1002 285.075 95.9947 285.153 95.8644C285.231 95.734 285.271 95.5842 285.267 95.4322V85.1231C285.263 84.983 285.224 84.8462 285.154 84.725C285.083 84.6038 284.984 84.502 284.864 84.4289C284.744 84.3559 284.609 84.3137 284.469 84.3064C284.329 84.299 284.189 84.3266 284.062 84.3868C280.603 86.2078 276.851 87.4086 272.977 87.9347C271.624 88.0686 270.245 88.1355 268.88 88.1221C267.365 88.1567 265.857 87.907 264.435 87.3858C263.215 86.8979 262.111 86.159 261.195 85.2168C260.274 84.1897 259.56 82.994 259.093 81.6957C258.669 80.4176 258.413 79.0901 258.33 77.7461H287.209C287.43 77.7461 287.643 77.6591 287.8 77.5038C287.958 77.3485 288.049 77.1374 288.052 76.916V70.4494C288.11 67.1499 287.593 63.8654 286.526 60.7428C285.613 58.0229 284.114 55.5366 282.134 53.4595V53.4461ZM271.892 61.2114C272.547 62.0947 273.029 63.0942 273.311 64.1568C273.579 65.1074 273.753 66.1383 273.82 67.2228H258.598C258.892 64.3309 259.695 62.1754 260.967 60.8231C261.638 60.0945 262.457 59.5179 263.369 59.1322C264.281 58.7465 265.266 58.5607 266.256 58.5873C267.393 58.5619 268.52 58.8002 269.549 59.2835C270.473 59.7299 271.276 60.3909 271.892 61.2114ZM83.8116 1.4856H81.9774L72.4314 24.3263H74.8279L77.7466 17.1768H88.0423L90.9878 24.3263H93.3977L83.8384 1.45882H83.8116V1.4856ZM78.2018 15.4096L82.9146 4.10974L87.48 15.4096H78.2018ZM98.0569 15.8782H105.487C109.397 15.8782 112.034 12.3704 112.034 8.64841C112.034 5.10048 109.209 1.47222 105.3 1.47222H95.821V24.3397H98.0435L98.0569 15.8782ZM98.0569 3.48048H105.18C107.683 3.48048 109.812 5.78329 109.812 8.64841C109.812 11.4198 108.071 13.8967 105.367 13.8967H98.0569V3.48048ZM113.172 24.3397L116.091 17.1902H126.36L129.305 24.3397H131.769L122.21 1.47222H120.362L110.789 24.3397H113.172ZM121.286 4.12312L125.865 15.4096H116.613L121.326 4.10974H121.299L121.286 4.12312ZM131.702 12.7319C131.702 7.24263 135.678 1.35172 142.547 1.35172C144.286 1.27566 146.009 1.70571 147.509 2.58973C149.008 3.47375 150.219 4.77378 150.995 6.33221L149.187 7.41668C148.578 6.15859 147.615 5.10513 146.417 4.38479C145.219 3.66445 143.837 3.30837 142.44 3.35998C136.977 3.35998 133.978 8.24676 133.978 12.8524C133.978 17.8864 137.673 22.4653 142.533 22.4653C143.988 22.4866 145.42 22.0988 146.665 21.3461C147.91 20.5933 148.918 19.5059 149.576 18.2077L151.45 19.1851C149.964 22.6125 145.907 24.5003 142.399 24.5003C136.134 24.5003 131.702 18.5157 131.702 12.7185V12.7319ZM156.805 24.3397H154.596V1.47222H156.805V11.6474H170.341V1.47222H172.604V24.3397H170.341V13.6423H156.819L156.805 24.3397ZM193.088 24.3397H177.758V1.47222H192.807V3.48048H179.967V11.7278H191.16V13.6289H179.954V22.3314H193.101V24.3397H193.088Z" fill="black"/>
</svg>
