<svg width="489" height="120" viewBox="0 0 589 120" fill="none" xmlns="http://www.w3.org/2000/svg">
<path d="M408.688 0V93.1954C408.688 111.09 418.628 118.653 434.421 118.653C437.683 118.775 440.946 118.445 444.117 117.674V96.6988C442.924 96.835 441.723 96.8903 440.522 96.8643C436.361 96.8643 432.959 95.0253 432.959 89.8667V0H408.688ZM459.294 0V93.1954C459.294 111.09 469.244 118.653 485.042 118.653C488.323 118.782 491.607 118.452 494.798 117.674V96.6988C493.611 96.8354 492.416 96.8906 491.221 96.8643C486.986 96.8643 483.557 95.0253 483.557 89.8667V0H459.294ZM164.531 8.64368V31.4529H191.552V117.995H217.626V31.4529H244.651V8.64828L164.531 8.64368ZM354.366 31.0804C328.412 31.0804 311.791 49.8943 311.791 76.1885C311.791 103.485 326.122 119.697 358.527 119.697C368.139 119.774 377.683 118.069 386.674 114.667V94.2759C378.352 96.9425 368.986 99.5908 359.377 99.5908C346.476 99.5908 337.492 95.3517 335.299 83.0943C342.048 83.8354 348.831 84.2329 355.621 84.285C374.081 84.285 389.658 79.3379 389.658 61.4621C389.658 44.1149 373.639 31.0804 354.366 31.0804ZM547.63 31.1172C521.561 31.1172 506.425 49.108 506.425 75.4023C506.425 101.526 521.736 120 547.63 120C573.524 120 588.504 101.752 588.504 75.4023C588.504 49.0529 573.699 31.1172 547.63 31.1172ZM300.389 31.6368C288.83 31.7425 282.122 38.4184 277.832 49.1816V32.8735H253.736V117.995H277.828V73.3885C277.828 59.7517 285.736 55.5908 302.761 56.9149V31.7011C301.971 31.6507 301.18 31.6292 300.389 31.6368ZM353.869 49.6506C360.697 49.6506 366.182 54.2942 366.182 60.6299C366.182 68.7816 357.58 71.3333 347.667 71.3333C343.448 71.311 339.237 70.9729 335.069 70.3218C335.385 66.349 336.527 62.4858 338.421 58.9793C339.939 56.1984 342.17 53.8721 344.885 52.2397C347.6 50.6074 350.701 49.7279 353.869 49.6919V49.6506ZM547.63 52.6942C559.699 52.6942 564.894 62.5977 564.894 75.4023C564.894 88.2069 559.832 98.3632 547.63 98.3632C535.428 98.3632 530.058 88.2069 530.058 75.4023C530.058 62.5747 535.561 52.6942 547.63 52.6942Z" fill="#293856"/>
<path d="M11.5311 3.31604e-05H106.543C108.058 -0.00360503 109.559 0.292163 110.96 0.870363C112.36 1.44856 113.633 2.2978 114.704 3.36928C115.776 4.44076 116.625 5.71338 117.203 7.11403C117.781 8.51468 118.077 10.0158 118.074 11.5311V106.543C118.077 108.058 117.781 109.559 117.203 110.96C116.625 112.36 115.776 113.633 114.704 114.704C113.633 115.776 112.36 116.625 110.96 117.203C109.559 117.781 108.058 118.077 106.543 118.074H11.5311C10.0158 118.077 8.51468 117.781 7.11403 117.203C5.71338 116.625 4.44076 115.776 3.36928 114.704C2.2978 113.633 1.44857 112.36 0.870371 110.96C0.292171 109.559 -0.00360503 108.058 3.31596e-05 106.543V11.5311C-0.00360503 10.0158 0.292171 8.51468 0.870371 7.11403C1.44857 5.71338 2.2978 4.44076 3.36928 3.36928C4.44076 2.2978 5.71338 1.44856 7.11403 0.870363C8.51468 0.292163 10.0158 -0.00360503 11.5311 3.31604e-05Z" fill="url(#paint0_linear_955_993)"/>
<path d="M72.2488 15.3472H97.1914C100.258 15.3472 102.727 17.8207 102.727 20.8828V61.4713C102.729 62.1988 102.587 62.9194 102.309 63.5919C102.032 64.2643 101.624 64.8753 101.11 65.3897C100.595 65.9041 99.9843 66.3117 99.3119 66.5893C98.6395 66.8668 97.9188 67.0088 97.1914 67.0069H72.2488C71.5214 67.0088 70.8007 66.8668 70.1283 66.5893C69.4558 66.3117 68.8449 65.9041 68.3305 65.3897C67.8161 64.8753 67.4084 64.2643 67.1309 63.5919C66.8533 62.9194 66.7114 62.1988 66.7132 61.4713V20.8828C66.7114 20.1556 66.8533 19.4351 67.1309 18.763C67.4085 18.0908 67.8163 17.4801 68.3308 16.9661C68.8452 16.4521 69.4562 16.0448 70.1286 15.7678C70.801 15.4907 71.5216 15.3494 72.2488 15.3518V15.3472ZM20.8833 15.3472H45.8258C48.8925 15.3472 51.3615 17.8207 51.3615 20.8828V90.9885C51.3633 91.716 51.2213 92.4367 50.9438 93.1091C50.6663 93.7815 50.2586 94.3925 49.7442 94.9069C49.2298 95.4213 48.6188 95.829 47.9464 96.1065C47.2739 96.3841 46.5533 96.526 45.8258 96.5242H20.8833C20.1558 96.526 19.4352 96.3841 18.7628 96.1065C18.0903 95.829 17.4794 95.4213 16.965 94.9069C16.4506 94.3925 16.0429 93.7815 15.7653 93.1091C15.4878 92.4367 15.3459 91.716 15.3477 90.9885V20.8828C15.3477 17.8161 17.8166 15.3472 20.8833 15.3472Z" fill="white"/>
<defs>
<linearGradient id="paint0_linear_955_993" x1="59.0389" y1="3.31596e-05" x2="59.0389" y2="118.078" gradientUnits="userSpaceOnUse">
<stop stop-color="#2684FF"/>
<stop offset="1" stop-color="#0052CC"/>
</linearGradient>
</defs>
</svg>
