<svg width="108" height="120" viewBox="0 0 108 120" fill="none" xmlns="http://www.w3.org/2000/svg">
<path d="M107.881 58.8131C107.659 57.7011 107.124 56.6755 106.34 55.8562C105.555 55.037 104.554 54.4581 103.453 54.1872L62.2896 43.8914L77.5128 8.36604C78.0431 7.13324 78.1439 5.75804 77.7989 4.46111C77.454 3.16418 76.6834 2.02071 75.6106 1.21417C74.5399 0.402346 73.2268 -0.0249961 71.8834 0.00113063C70.5399 0.0272574 69.2444 0.50533 68.2061 1.35817L2.20116 55.3572C1.3402 56.0614 0.691954 56.9911 0.3288 58.0423C-0.0343533 59.0936 -0.0981153 60.2251 0.144633 61.3106C0.387381 62.396 0.927084 63.3926 1.70348 64.189C2.47987 64.9855 3.4624 65.5505 4.54134 65.821L44.8584 75.9068L24.7869 111.03C24.2691 111.943 23.9993 112.975 24.0045 114.024C24.0097 115.073 24.2897 116.102 24.8165 117.01C25.3433 117.917 26.0986 118.67 27.0072 119.195C27.9158 119.72 28.946 119.997 29.9952 120C31.2939 120.002 32.5579 119.581 33.5955 118.8L105.601 64.801C106.508 64.1204 107.204 63.1967 107.607 62.1369C108.011 61.0771 108.106 59.9246 107.881 58.8131Z" fill="black"/>
</svg>
